<svg xmlns="http://www.w3.org/2000/svg" width="2000" height="1100" viewBox="0 0 2000 1100"><rect width="2000" height="1100" fill="#F3F3F7"/><text x="35" y="57" font-family="Manrope" font-size="32" font-weight="700" fill="#242238">5.4.6.2 · Finances · Diseño de base de datos</text><rect x="35" y="140" width="580" height="310" rx="12" fill="white" stroke="#D9D9E2"/><text x="53" y="179" font-family="Manrope" font-size="24" font-weight="700" fill="#534AB7">transactions</text><rect x="47" y="205" width="556" height="1" rx="0" fill="#D9D9E2" stroke="#D9D9E2"/><text x="53" y="245" font-family="Inter" font-size="20" font-weight="400" fill="#242238">PK id · FK account_id, category_id</text><text x="53" y="274" font-family="Inter" font-size="20" font-weight="400" fill="#242238">owner_type, owner_id, amount</text><text x="53" y="303" font-family="Inter" font-size="20" font-weight="400" fill="#242238">status, transaction_date</text><text x="53" y="332" font-family="Inter" font-size="20" font-weight="400" fill="#242238">FK proposal_id NULL · UNIQUE</text><rect x="690" y="140" width="580" height="310" rx="12" fill="white" stroke="#D9D9E2"/><text x="708" y="179" font-family="Manrope" font-size="24" font-weight="700" fill="#534AB7">shared_fund_proposals</text><rect x="702" y="205" width="556" height="1" rx="0" fill="#D9D9E2" stroke="#D9D9E2"/><text x="708" y="245" font-family="Inter" font-size="20" font-weight="400" fill="#242238">PK id · family_id</text><text x="708" y="274" font-family="Inter" font-size="20" font-weight="400" fill="#242238">amount, recipient, terms_hash</text><text x="708" y="303" font-family="Inter" font-size="20" font-weight="400" fill="#242238">status, version, network_reference</text><text x="708" y="332" font-family="Inter" font-size="20" font-weight="400" fill="#242238">confirmed_at</text><rect x="1345" y="140" width="580" height="310" rx="12" fill="white" stroke="#D9D9E2"/><text x="1363" y="179" font-family="Manrope" font-size="24" font-weight="700" fill="#534AB7">proposal_approvals</text><rect x="1357" y="205" width="556" height="1" rx="0" fill="#D9D9E2" stroke="#D9D9E2"/><text x="1363" y="245" font-family="Inter" font-size="20" font-weight="400" fill="#242238">PK id · FK proposal_id</text><text x="1363" y="274" font-family="Inter" font-size="20" font-weight="400" fill="#242238">member_id, decision, signature</text><text x="1363" y="303" font-family="Inter" font-size="20" font-weight="400" fill="#242238">signed_at</text><text x="1363" y="332" font-family="Inter" font-size="20" font-weight="400" fill="#242238">UNIQUE(proposal_id, member_id)</text><rect x="35" y="530" width="580" height="310" rx="12" fill="white" stroke="#D9D9E2"/><text x="53" y="569" font-family="Manrope" font-size="24" font-weight="700" fill="#534AB7">spending_limits</text><rect x="47" y="595" width="556" height="1" rx="0" fill="#D9D9E2" stroke="#D9D9E2"/><text x="53" y="635" font-family="Inter" font-size="20" font-weight="400" fill="#242238">PK id · owner_type, owner_id</text><text x="53" y="664" font-family="Inter" font-size="20" font-weight="400" fill="#242238">target_type, target_id</text><text x="53" y="693" font-family="Inter" font-size="20" font-weight="400" fill="#242238">limit_amount, current_spent_amount</text><text x="53" y="722" font-family="Inter" font-size="20" font-weight="400" fill="#242238">period, status</text><rect x="690" y="530" width="580" height="310" rx="12" fill="white" stroke="#D9D9E2"/><text x="708" y="569" font-family="Manrope" font-size="24" font-weight="700" fill="#534AB7">proposal_required_members</text><rect x="702" y="595" width="556" height="1" rx="0" fill="#D9D9E2" stroke="#D9D9E2"/><text x="708" y="635" font-family="Inter" font-size="20" font-weight="400" fill="#242238">PK (proposal_id, member_id)</text><text x="708" y="664" font-family="Inter" font-size="20" font-weight="400" fill="#242238">FK proposal_id</text><text x="708" y="693" font-family="Inter" font-size="20" font-weight="400" fill="#242238">member_id: snapshot de membresía</text><text x="708" y="722" font-family="Inter" font-size="20" font-weight="400" fill="#242238">Datos fuera de cadena</text><rect x="1345" y="530" width="580" height="310" rx="12" fill="white" stroke="#D9D9E2"/><text x="1363" y="569" font-family="Manrope" font-size="24" font-weight="700" fill="#534AB7">recurring_transactions</text><rect x="1357" y="595" width="556" height="1" rx="0" fill="#D9D9E2" stroke="#D9D9E2"/><text x="1363" y="635" font-family="Inter" font-size="20" font-weight="400" fill="#242238">PK id · FK account_id, category_id</text><text x="1363" y="664" font-family="Inter" font-size="20" font-weight="400" fill="#242238">owner_type, owner_id, amount</text><text x="1363" y="693" font-family="Inter" font-size="20" font-weight="400" fill="#242238">frequency, next_due_date, active</text><path d="M615 380 L690 380" fill="none" stroke="#534AB7" stroke-width="3"/><text x="661" y="390" font-family="Manrope" font-size="25" font-weight="700" fill="#534AB7">→</text><path d="M1270 380 L1345 380" fill="none" stroke="#534AB7" stroke-width="3"/><text x="1316" y="390" font-family="Manrope" font-size="25" font-weight="700" fill="#534AB7">→</text><path d="M980 450 L980 530" fill="none" stroke="#534AB7" stroke-width="3"/><text x="970" y="523" font-family="Manrope" font-size="25" font-weight="700" fill="#534AB7">↓</text><text x="35" y="980" font-family="Inter" font-size="20" font-weight="400" fill="#666477">FK: transactions.proposal_id → shared_fund_proposals.id; approvals y required_members N:1 → proposals. Se conserva registro personal; propuestas pendientes no son movimientos.</text></svg>