<svg xmlns="http://www.w3.org/2000/svg" width="1680" height="1080" viewBox="0 0 1680 1080" font-family="Segoe UI,Helvetica,Arial,sans-serif"><defs><marker id="a1" viewBox="0 0 10 10" refX="9" refY="5" markerWidth="7" markerHeight="7" orient="auto-start-reverse"><path d="M 0 0 L 10 5 L 0 10 z" fill="#0b7285"/></marker><marker id="a2" viewBox="0 0 10 10" refX="9" refY="5" markerWidth="7" markerHeight="7" orient="auto-start-reverse"><path d="M 0 0 L 10 5 L 0 10 z" fill="#c2255c"/></marker></defs><rect width="1680" height="1080" fill="#ffffff"/><text x="840.0" y="46" font-size="23" font-weight="700" fill="#1f2933" text-anchor="middle">Context Map de Intiva</text><text x="840.0" y="72" font-size="13.5" fill="#5b6b7a" text-anchor="middle">Relaciones estructurales entre los ocho bounded contexts · U = upstream, D = downstream · Elaboración propia a partir de intiva-api-platform</text><line x1="461.0" y1="238.0" x2="659.0" y2="238.0" stroke="#0b7285" stroke-width="2.4" marker-end="url(#a1)"/><circle cx="488.7" cy="238.0" r="10" fill="#ffffff" stroke="#0b7285" stroke-width="1.8"/><text x="488.7" y="242.0" font-size="11.5" font-weight="700" fill="#0b7285" text-anchor="middle">D</text><circle cx="631.3" cy="238.0" r="10" fill="#ffffff" stroke="#0b7285" stroke-width="1.8"/><text x="631.3" y="242.0" font-size="11.5" font-weight="700" fill="#0b7285" text-anchor="middle">U</text><circle cx="560.0" cy="238.0" r="13" fill="#0b7285" stroke="#ffffff" stroke-width="2.5"/><text x="560.0" y="242.5" font-size="13" font-weight="700" fill="#ffffff" text-anchor="middle">1</text><rect x="468.0" y="180.0" width="184" height="33" rx="6" fill="#ffffff" opacity="0.94"/><text x="560.0" y="194.0" font-size="11.5" font-weight="700" fill="#0b7285" text-anchor="middle">Customer/Supplier · ACL</text><text x="560.0" y="208.0" font-size="10.5" fill="#5b6b7a" text-anchor="middle">síncrono</text><line x1="309.0" y1="299.0" x2="309.0" y2="424.0" stroke="#0b7285" stroke-width="2.4" marker-end="url(#a1)"/><circle cx="309.0" cy="316.5" r="10" fill="#ffffff" stroke="#0b7285" stroke-width="1.8"/><text x="309.0" y="320.5" font-size="11.5" font-weight="700" fill="#0b7285" text-anchor="middle">D</text><circle cx="309.0" cy="406.5" r="10" fill="#ffffff" stroke="#0b7285" stroke-width="1.8"/><text x="309.0" y="410.5" font-size="11.5" font-weight="700" fill="#0b7285" text-anchor="middle">U</text><circle cx="309.0" cy="361.5" r="13" fill="#0b7285" stroke="#ffffff" stroke-width="2.5"/><text x="309.0" y="366.0" font-size="13" font-weight="700" fill="#ffffff" text-anchor="middle">2</text><rect x="109.0" y="345.5" width="184" height="33" rx="6" fill="#ffffff" opacity="0.94"/><text x="201.0" y="359.5" font-size="11.5" font-weight="700" fill="#0b7285" text-anchor="middle">Customer/Supplier · OHS</text><text x="201.0" y="373.5" font-size="10.5" fill="#5b6b7a" text-anchor="middle">síncrono</text><line x1="361.0" y1="424.0" x2="361.0" y2="299.0" stroke="#0b7285" stroke-width="2.4" stroke-dasharray="9 6" marker-end="url(#a1)"/><circle cx="361.0" cy="406.5" r="10" fill="#ffffff" stroke="#0b7285" stroke-width="1.8"/><text x="361.0" y="410.5" font-size="11.5" font-weight="700" fill="#0b7285" text-anchor="middle">D</text><circle cx="361.0" cy="316.5" r="10" fill="#ffffff" stroke="#0b7285" stroke-width="1.8"/><text x="361.0" y="320.5" font-size="11.5" font-weight="700" fill="#0b7285" text-anchor="middle">U</text><circle cx="361.0" cy="361.5" r="13" fill="#0b7285" stroke="#ffffff" stroke-width="2.5"/><text x="361.0" y="366.0" font-size="13" font-weight="700" fill="#ffffff" text-anchor="middle">3</text><rect x="377.0" y="345.5" width="184" height="33" rx="6" fill="#ffffff" opacity="0.94"/><text x="469.0" y="359.5" font-size="11.5" font-weight="700" fill="#0b7285" text-anchor="middle">Conformist</text><text x="469.0" y="373.5" font-size="10.5" fill="#5b6b7a" text-anchor="middle">evento</text><line x1="784.0" y1="474.0" x2="784.0" y2="299.0" stroke="#0b7285" stroke-width="2.4" marker-end="url(#a1)"/><circle cx="784.0" cy="449.5" r="10" fill="#ffffff" stroke="#0b7285" stroke-width="1.8"/><text x="784.0" y="453.5" font-size="11.5" font-weight="700" fill="#0b7285" text-anchor="middle">D</text><circle cx="784.0" cy="323.5" r="10" fill="#ffffff" stroke="#0b7285" stroke-width="1.8"/><text x="784.0" y="327.5" font-size="11.5" font-weight="700" fill="#0b7285" text-anchor="middle">U</text><circle cx="784.0" cy="386.5" r="13" fill="#0b7285" stroke="#ffffff" stroke-width="2.5"/><text x="784.0" y="391.0" font-size="13" font-weight="700" fill="#ffffff" text-anchor="middle">4</text><rect x="584.0" y="370.5" width="184" height="33" rx="6" fill="#ffffff" opacity="0.94"/><text x="676.0" y="384.5" font-size="11.5" font-weight="700" fill="#0b7285" text-anchor="middle">Customer/Supplier · ACL</text><text x="676.0" y="398.5" font-size="10.5" fill="#5b6b7a" text-anchor="middle">síncrono</text><line x1="911.0" y1="508.0" x2="1174.0" y2="508.0" stroke="#0b7285" stroke-width="2.4" marker-end="url(#a1)"/><circle cx="947.8" cy="508.0" r="10" fill="#ffffff" stroke="#0b7285" stroke-width="1.8"/><text x="947.8" y="512.0" font-size="11.5" font-weight="700" fill="#0b7285" text-anchor="middle">D</text><circle cx="1137.2" cy="508.0" r="10" fill="#ffffff" stroke="#0b7285" stroke-width="1.8"/><text x="1137.2" y="512.0" font-size="11.5" font-weight="700" fill="#0b7285" text-anchor="middle">U</text><circle cx="1042.5" cy="508.0" r="13" fill="#0b7285" stroke="#ffffff" stroke-width="2.5"/><text x="1042.5" y="512.5" font-size="13" font-weight="700" fill="#ffffff" text-anchor="middle">5</text><rect x="887.4" y="450.0" width="184" height="33" rx="6" fill="#ffffff" opacity="0.94"/><text x="979.4" y="464.0" font-size="11.5" font-weight="700" fill="#0b7285" text-anchor="middle">Customer/Supplier · OHS</text><text x="979.4" y="478.0" font-size="10.5" fill="#5b6b7a" text-anchor="middle">síncrono</text><line x1="1174.0" y1="560.0" x2="911.0" y2="560.0" stroke="#0b7285" stroke-width="2.4" stroke-dasharray="9 6" marker-end="url(#a1)"/><circle cx="1137.2" cy="560.0" r="10" fill="#ffffff" stroke="#0b7285" stroke-width="1.8"/><text x="1137.2" y="564.0" font-size="11.5" font-weight="700" fill="#0b7285" text-anchor="middle">D</text><circle cx="947.8" cy="560.0" r="10" fill="#ffffff" stroke="#0b7285" stroke-width="1.8"/><text x="947.8" y="564.0" font-size="11.5" font-weight="700" fill="#0b7285" text-anchor="middle">U</text><circle cx="1042.5" cy="560.0" r="13" fill="#0b7285" stroke="#ffffff" stroke-width="2.5"/><text x="1042.5" y="564.5" font-size="13" font-weight="700" fill="#ffffff" text-anchor="middle">6</text><rect x="887.4" y="586.0" width="184" height="33" rx="6" fill="#ffffff" opacity="0.94"/><text x="979.4" y="600.0" font-size="11.5" font-weight="700" fill="#0b7285" text-anchor="middle">Conformist</text><text x="979.4" y="614.0" font-size="10.5" fill="#5b6b7a" text-anchor="middle">eventos</text><line x1="1274.0" y1="594.0" x2="1274.0" y2="769.0" stroke="#0b7285" stroke-width="2.4" marker-end="url(#a1)"/><circle cx="1274.0" cy="618.5" r="10" fill="#ffffff" stroke="#0b7285" stroke-width="1.8"/><text x="1274.0" y="622.5" font-size="11.5" font-weight="700" fill="#0b7285" text-anchor="middle">D</text><circle cx="1274.0" cy="744.5" r="10" fill="#ffffff" stroke="#0b7285" stroke-width="1.8"/><text x="1274.0" y="748.5" font-size="11.5" font-weight="700" fill="#0b7285" text-anchor="middle">U</text><circle cx="1274.0" cy="681.5" r="13" fill="#0b7285" stroke="#ffffff" stroke-width="2.5"/><text x="1274.0" y="686.0" font-size="13" font-weight="700" fill="#ffffff" text-anchor="middle">7</text><rect x="1074.0" y="665.5" width="184" height="33" rx="6" fill="#ffffff" opacity="0.94"/><text x="1166.0" y="679.5" font-size="11.5" font-weight="700" fill="#0b7285" text-anchor="middle">Partnership · ACL</text><text x="1166.0" y="693.5" font-size="10.5" fill="#5b6b7a" text-anchor="middle">síncrono</text><line x1="1326.0" y1="769.0" x2="1326.0" y2="594.0" stroke="#0b7285" stroke-width="2.4" marker-end="url(#a1)"/><circle cx="1326.0" cy="744.5" r="10" fill="#ffffff" stroke="#0b7285" stroke-width="1.8"/><text x="1326.0" y="748.5" font-size="11.5" font-weight="700" fill="#0b7285" text-anchor="middle">D</text><circle cx="1326.0" cy="618.5" r="10" fill="#ffffff" stroke="#0b7285" stroke-width="1.8"/><text x="1326.0" y="622.5" font-size="11.5" font-weight="700" fill="#0b7285" text-anchor="middle">U</text><circle cx="1326.0" cy="681.5" r="13" fill="#0b7285" stroke="#ffffff" stroke-width="2.5"/><text x="1326.0" y="686.0" font-size="13" font-weight="700" fill="#ffffff" text-anchor="middle">8</text><rect x="1342.0" y="665.5" width="184" height="33" rx="6" fill="#ffffff" opacity="0.94"/><text x="1434.0" y="679.5" font-size="11.5" font-weight="700" fill="#0b7285" text-anchor="middle">Partnership · ACL</text><text x="1434.0" y="693.5" font-size="10.5" fill="#5b6b7a" text-anchor="middle">síncrono</text><line x1="1174.0" y1="238.0" x2="911.0" y2="238.0" stroke="#0b7285" stroke-width="2.4" marker-end="url(#a1)"/><circle cx="1137.2" cy="238.0" r="10" fill="#ffffff" stroke="#0b7285" stroke-width="1.8"/><text x="1137.2" y="242.0" font-size="11.5" font-weight="700" fill="#0b7285" text-anchor="middle">D</text><circle cx="947.8" cy="238.0" r="10" fill="#ffffff" stroke="#0b7285" stroke-width="1.8"/><text x="947.8" y="242.0" font-size="11.5" font-weight="700" fill="#0b7285" text-anchor="middle">U</text><circle cx="1042.5" cy="238.0" r="13" fill="#0b7285" stroke="#ffffff" stroke-width="2.5"/><text x="1042.5" y="242.5" font-size="13" font-weight="700" fill="#ffffff" text-anchor="middle">9</text><rect x="950.5" y="180.0" width="184" height="33" rx="6" fill="#ffffff" opacity="0.94"/><text x="1042.5" y="194.0" font-size="11.5" font-weight="700" fill="#0b7285" text-anchor="middle">Customer/Supplier · ACL</text><text x="1042.5" y="208.0" font-size="10.5" fill="#5b6b7a" text-anchor="middle">síncrono</text><line x1="1194.8" y1="298.1" x2="889.2" y2="473.1" stroke="#c2255c" stroke-width="3.2" stroke-dasharray="9 6" marker-end="url(#a2)"/><circle cx="1152.0" cy="322.6" r="10" fill="#ffffff" stroke="#c2255c" stroke-width="1.8"/><text x="1152.0" y="326.6" font-size="11.5" font-weight="700" fill="#c2255c" text-anchor="middle">D</text><circle cx="932.0" cy="448.6" r="10" fill="#ffffff" stroke="#c2255c" stroke-width="1.8"/><text x="932.0" y="452.6" font-size="11.5" font-weight="700" fill="#c2255c" text-anchor="middle">U</text><circle cx="1042.0" cy="385.6" r="13" fill="#c2255c" stroke="#ffffff" stroke-width="2.5"/><text x="1042.0" y="390.1" font-size="13" font-weight="700" fill="#ffffff" text-anchor="middle">10</text><rect x="953.6" y="319.2" width="184" height="33" rx="6" fill="#ffffff" opacity="0.94"/><text x="1045.6" y="333.2" font-size="11.5" font-weight="700" fill="#c2255c" text-anchor="middle">Shared DB · sin ACL</text><text x="1045.6" y="347.2" font-size="10.5" fill="#5b6b7a" text-anchor="middle">deuda</text><line x1="1248.4" y1="299.7" x2="838.1" y2="769.7" stroke="#c2255c" stroke-width="3.2" stroke-dasharray="9 6" marker-end="url(#a2)"/><circle cx="1190.9" cy="365.5" r="10" fill="#ffffff" stroke="#c2255c" stroke-width="1.8"/><text x="1190.9" y="369.5" font-size="11.5" font-weight="700" fill="#c2255c" text-anchor="middle">D</text><circle cx="895.6" cy="703.9" r="10" fill="#ffffff" stroke="#c2255c" stroke-width="1.8"/><text x="895.6" y="707.9" font-size="11.5" font-weight="700" fill="#c2255c" text-anchor="middle">U</text><circle cx="948.9" cy="642.8" r="13" fill="#c2255c" stroke="#ffffff" stroke-width="2.5"/><text x="948.9" y="647.3" font-size="13" font-weight="700" fill="#ffffff" text-anchor="middle">11</text><rect x="917.7" y="721.3" width="184" height="33" rx="6" fill="#ffffff" opacity="0.94"/><text x="1009.7" y="735.3" font-size="11.5" font-weight="700" fill="#c2255c" text-anchor="middle">Shared DB · sin ACL</text><text x="1009.7" y="749.3" font-size="10.5" fill="#5b6b7a" text-anchor="middle">deuda</text><rect x="215" y="185" width="240" height="108" rx="11" fill="#adb5bd" stroke="#1f2933" stroke-width="2"/><text x="335.0" y="224.0" font-size="17" font-weight="700" fill="#1f2933" text-anchor="middle">Identity and Access</text><text x="335.0" y="246.0" font-size="17" font-weight="700" fill="#1f2933" text-anchor="middle">Management (IAM)</text><text x="335.0" y="277" font-size="11.5" font-weight="600" fill="#5b6b7a" text-anchor="middle">Generic Subdomain</text><rect x="215" y="430" width="240" height="108" rx="11" fill="#e9ecef" stroke="#1f2933" stroke-width="2"/><text x="335.0" y="480.0" font-size="17" font-weight="700" fill="#1f2933" text-anchor="middle">Profiles</text><text x="335.0" y="522" font-size="11.5" font-weight="600" fill="#5b6b7a" text-anchor="middle">Supporting Subdomain</text><rect x="665" y="185" width="240" height="108" rx="11" fill="#e9ecef" stroke="#1f2933" stroke-width="2"/><text x="785.0" y="224.0" font-size="17" font-weight="700" fill="#1f2933" text-anchor="middle">Categories &amp;</text><text x="785.0" y="246.0" font-size="17" font-weight="700" fill="#1f2933" text-anchor="middle">Financial Accounts</text><text x="785.0" y="277" font-size="11.5" font-weight="600" fill="#5b6b7a" text-anchor="middle">Supporting Subdomain</text><rect x="1180" y="185" width="240" height="108" rx="11" fill="#e9ecef" stroke="#1f2933" stroke-width="2"/><text x="1300.0" y="235.0" font-size="17" font-weight="700" fill="#1f2933" text-anchor="middle">Analytics</text><text x="1300.0" y="277" font-size="11.5" font-weight="600" fill="#5b6b7a" text-anchor="middle">Supporting · read model</text><rect x="665" y="480" width="240" height="108" rx="11" fill="#0b7285" stroke="#083f4d" stroke-width="2"/><text x="785.0" y="530.0" font-size="17" font-weight="700" fill="#ffffff" text-anchor="middle">Finances</text><text x="785.0" y="572" font-size="11.5" font-weight="600" fill="#cfe8ec" text-anchor="middle">CORE Subdomain</text><rect x="1180" y="480" width="240" height="108" rx="11" fill="#adb5bd" stroke="#1f2933" stroke-width="2"/><text x="1300.0" y="530.0" font-size="17" font-weight="700" fill="#1f2933" text-anchor="middle">Communications</text><text x="1300.0" y="572" font-size="11.5" font-weight="600" fill="#5b6b7a" text-anchor="middle">Generic / Supporting</text><rect x="665" y="775" width="240" height="108" rx="11" fill="#0b7285" stroke="#083f4d" stroke-width="2"/><text x="785.0" y="814.0" font-size="17" font-weight="700" fill="#ffffff" text-anchor="middle">Financial Goals</text><text x="785.0" y="836.0" font-size="17" font-weight="700" fill="#ffffff" text-anchor="middle">(Savings)</text><text x="785.0" y="867" font-size="11.5" font-weight="600" fill="#cfe8ec" text-anchor="middle">CORE Subdomain</text><rect x="1180" y="775" width="240" height="108" rx="11" fill="#0b7285" stroke="#083f4d" stroke-width="2"/><text x="1300.0" y="825.0" font-size="17" font-weight="700" fill="#ffffff" text-anchor="middle">Household</text><text x="1300.0" y="867" font-size="11.5" font-weight="600" fill="#cfe8ec" text-anchor="middle">CORE Subdomain</text><rect x="215" y="930" width="1205" height="74" rx="10" fill="#f8f0e3" stroke="#b08968" stroke-width="2.2" stroke-dasharray="10 6"/><text x="240" y="958" font-size="13.5" font-weight="700" fill="#8a5a2b">SHARED KERNEL — paquete platform.shared (compartido por los 8 bounded contexts)</text><text x="240" y="982" font-size="12.5" fill="#6b4b2a">Money · UserId · OwnerTypes (Individual / Family) · PeriodTypes · CurrencyCodes · TransactionEntry · AuditableAbstractAggregate · almacenamiento de imágenes</text><line x1="240" y1="1045" x2="278" y2="1045" stroke="#0b7285" stroke-width="3"/><text x="286" y="1050" font-size="12" fill="#5b6b7a" font-weight="600">Llamada síncrona a interfaz publicada (ACL / Open Host Service)</text><line x1="703.2" y1="1045" x2="741.2" y2="1045" stroke="#0b7285" stroke-width="3" stroke-dasharray="9 6"/><text x="749.2" y="1050" font-size="12" fill="#5b6b7a" font-weight="600">Colaboración asíncrona por domain events (Conformist)</text><line x1="1102.4" y1="1045" x2="1140.4" y2="1045" stroke="#c2255c" stroke-width="3" stroke-dasharray="9 6"/><text x="1148.4" y="1050" font-size="12" fill="#5b6b7a" font-weight="600">Acceso directo a repositorios — deuda de diseño</text><text x="1640" y="1050" font-size="12" font-weight="700" fill="#5b6b7a" text-anchor="end">Resolum · Intiva</text></svg>